<svg width="262" height="12" viewBox="0 0 262 12" fill="none" xmlns="http://www.w3.org/2000/svg">
<path d="M7.04357 7.682C7.11357 7.67733 7.17657 7.703 7.23257 7.759L7.65257 8.207C7.38657 8.515 7.0599 8.75533 6.67257 8.928C6.2899 9.096 5.8279 9.18 5.28657 9.18C4.82924 9.18 4.41157 9.10067 4.03357 8.942C3.66024 8.78333 3.33824 8.56167 3.06757 8.277C2.80157 7.99233 2.5939 7.654 2.44457 7.262C2.2999 6.87 2.22757 6.44067 2.22757 5.974C2.22757 5.50267 2.3069 5.071 2.46557 4.679C2.62424 4.28233 2.8459 3.944 3.13057 3.664C3.41524 3.37933 3.75124 3.16 4.13857 3.006C4.53057 2.84733 4.95524 2.768 5.41257 2.768C5.92124 2.768 6.35057 2.84733 6.70057 3.006C7.05524 3.16 7.36557 3.36767 7.63157 3.629L7.30957 4.084C7.28624 4.112 7.2559 4.14 7.21857 4.168C7.18124 4.196 7.1369 4.21 7.08557 4.21C7.02024 4.21 6.95024 4.18433 6.87557 4.133C6.80557 4.08167 6.71224 4.02567 6.59557 3.965C6.4789 3.89967 6.32957 3.84133 6.14757 3.79C5.97024 3.734 5.74624 3.706 5.47557 3.706C5.14424 3.706 4.8479 3.75967 4.58657 3.867C4.32524 3.96967 4.10124 4.119 3.91457 4.315C3.7279 4.511 3.58557 4.749 3.48757 5.029C3.38957 5.309 3.34057 5.624 3.34057 5.974C3.34057 6.33333 3.38957 6.65533 3.48757 6.94C3.59024 7.22 3.73024 7.45567 3.90757 7.647C4.0849 7.83833 4.2949 7.98533 4.53757 8.088C4.7849 8.186 5.05324 8.235 5.34257 8.235C5.58524 8.235 5.78824 8.21633 5.95157 8.179C6.1149 8.14167 6.25724 8.09733 6.37857 8.046C6.50457 7.99 6.61657 7.92933 6.71457 7.864C6.81724 7.79867 6.9269 7.738 7.04357 7.682ZM0.14157 5.988C0.14157 5.51667 0.202237 5.064 0.32357 4.63C0.444904 4.19133 0.61757 3.783 0.84157 3.405C1.06557 3.02233 1.33157 2.677 1.63957 2.369C1.95224 2.05633 2.29757 1.788 2.67557 1.564C3.05357 1.34 3.45957 1.16733 3.89357 1.046C4.32757 0.924666 4.78024 0.863999 5.25157 0.863999C5.7229 0.863999 6.17557 0.924666 6.60957 1.046C7.04824 1.16733 7.45657 1.34 7.83457 1.564C8.21257 1.788 8.5579 2.05633 8.87057 2.369C9.18324 2.677 9.44924 3.02233 9.66857 3.405C9.89257 3.783 10.0652 4.19133 10.1866 4.63C10.3079 5.064 10.3686 5.51667 10.3686 5.988C10.3686 6.45467 10.3079 6.90733 10.1866 7.346C10.0652 7.78 9.89257 8.186 9.66857 8.564C9.44924 8.942 9.18324 9.28733 8.87057 9.6C8.5579 9.908 8.21257 10.174 7.83457 10.398C7.45657 10.622 7.04824 10.7947 6.60957 10.916C6.17557 11.0373 5.7229 11.098 5.25157 11.098C4.78024 11.098 4.32757 11.0373 3.89357 10.916C3.45957 10.7947 3.05357 10.622 2.67557 10.398C2.29757 10.174 1.95224 9.908 1.63957 9.6C1.33157 9.28733 1.06557 8.942 0.84157 8.564C0.61757 8.186 0.444904 7.78 0.32357 7.346C0.202237 6.912 0.14157 6.45933 0.14157 5.988ZM0.84857 5.988C0.84857 6.40333 0.899904 6.80233 1.00257 7.185C1.10524 7.56767 1.2499 7.927 1.43657 8.263C1.6279 8.59433 1.85657 8.89533 2.12257 9.166C2.39324 9.43667 2.68957 9.67 3.01157 9.866C3.33824 10.0573 3.69057 10.2067 4.06857 10.314C4.44657 10.4167 4.8409 10.468 5.25157 10.468C5.66224 10.468 6.05657 10.4167 6.43457 10.314C6.81724 10.2067 7.1719 10.0573 7.49857 9.866C7.8299 9.67 8.12857 9.43667 8.39457 9.166C8.66524 8.89533 8.89624 8.59433 9.08757 8.263C9.2789 7.927 9.4259 7.56767 9.52857 7.185C9.6359 6.80233 9.68957 6.40333 9.68957 5.988C9.68957 5.36267 9.5729 4.777 9.33957 4.231C9.1109 3.68033 8.7959 3.202 8.39457 2.796C7.9979 2.38533 7.5289 2.06333 6.98757 1.83C6.44624 1.592 5.86757 1.473 5.25157 1.473C4.8409 1.473 4.44657 1.52667 4.06857 1.634C3.69057 1.74133 3.33824 1.893 3.01157 2.089C2.68957 2.28033 2.39324 2.51367 2.12257 2.789C1.85657 3.06433 1.6279 3.37 1.43657 3.706C1.2499 4.03733 1.10524 4.39667 1.00257 4.784C0.899904 5.17133 0.84857 5.57267 0.84857 5.988ZM21.5604 9.817C21.6957 9.817 21.803 9.85667 21.8824 9.936C21.9617 10.0153 22.0014 10.118 22.0014 10.244V11H15.3094V10.573C15.3094 10.4843 15.328 10.3933 15.3654 10.3C15.4027 10.2067 15.461 10.1203 15.5404 10.041L18.7534 6.814C19.0194 6.54333 19.262 6.28433 19.4814 6.037C19.7007 5.785 19.8874 5.533 20.0414 5.281C20.1954 5.029 20.3144 4.77467 20.3984 4.518C20.4824 4.25667 20.5244 3.979 20.5244 3.685C20.5244 3.391 20.4777 3.13433 20.3844 2.915C20.291 2.691 20.1627 2.50667 19.9994 2.362C19.8407 2.21733 19.6517 2.11 19.4324 2.04C19.213 1.96533 18.9774 1.928 18.7254 1.928C18.4687 1.928 18.233 1.96533 18.0184 2.04C17.8037 2.11467 17.6124 2.21967 17.4444 2.355C17.281 2.48567 17.1434 2.642 17.0314 2.824C16.9194 3.006 16.84 3.20667 16.7934 3.426C16.7374 3.58933 16.6604 3.699 16.5624 3.755C16.469 3.80633 16.336 3.82033 16.1634 3.797L15.5124 3.685C15.5777 3.22767 15.7037 2.824 15.8904 2.474C16.0817 2.11933 16.3197 1.823 16.6044 1.585C16.8937 1.347 17.2227 1.16733 17.5914 1.046C17.96 0.919999 18.359 0.856999 18.7884 0.856999C19.213 0.856999 19.6097 0.919999 19.9784 1.046C20.347 1.172 20.6667 1.35633 20.9374 1.599C21.208 1.837 21.4204 2.12867 21.5744 2.474C21.7284 2.81933 21.8054 3.21133 21.8054 3.65C21.8054 4.02333 21.7494 4.371 21.6374 4.693C21.5254 5.01033 21.3737 5.31367 21.1824 5.603C20.991 5.89233 20.7694 6.17467 20.5174 6.45C20.27 6.72533 20.0064 7.003 19.7264 7.283L17.0804 9.985C17.267 9.93367 17.456 9.894 17.6474 9.866C17.8387 9.83333 18.023 9.817 18.2004 9.817H21.5604ZM30.4725 5.988C30.4725 6.86533 30.3768 7.626 30.1855 8.27C29.9988 8.90933 29.7421 9.439 29.4155 9.859C29.0888 10.279 28.7015 10.5917 28.2535 10.797C27.8101 11.0023 27.3341 11.105 26.8255 11.105C26.3121 11.105 25.8338 11.0023 25.3905 10.797C24.9518 10.5917 24.5691 10.279 24.2425 9.859C23.9158 9.439 23.6591 8.90933 23.4725 8.27C23.2858 7.626 23.1925 6.86533 23.1925 5.988C23.1925 5.11067 23.2858 4.35 23.4725 3.706C23.6591 3.062 23.9158 2.53 24.2425 2.11C24.5691 1.68533 24.9518 1.37033 25.3905 1.165C25.8338 0.959666 26.3121 0.856999 26.8255 0.856999C27.3341 0.856999 27.8101 0.959666 28.2535 1.165C28.7015 1.37033 29.0888 1.68533 29.4155 2.11C29.7421 2.53 29.9988 3.062 30.1855 3.706C30.3768 4.35 30.4725 5.11067 30.4725 5.988ZM29.1775 5.988C29.1775 5.22267 29.1121 4.581 28.9815 4.063C28.8555 3.54033 28.6828 3.12033 28.4635 2.803C28.2488 2.48567 27.9991 2.25933 27.7145 2.124C27.4298 1.984 27.1335 1.914 26.8255 1.914C26.5175 1.914 26.2211 1.984 25.9365 2.124C25.6518 2.25933 25.4021 2.48567 25.1875 2.803C24.9728 3.12033 24.8001 3.54033 24.6695 4.063C24.5435 4.581 24.4805 5.22267 24.4805 5.988C24.4805 6.75333 24.5435 7.395 24.6695 7.913C24.8001 8.431 24.9728 8.84867 25.1875 9.166C25.4021 9.48333 25.6518 9.712 25.9365 9.852C26.2211 9.98733 26.5175 10.055 26.8255 10.055C27.1335 10.055 27.4298 9.98733 27.7145 9.852C27.9991 9.712 28.2488 9.48333 28.4635 9.166C28.6828 8.84867 28.8555 8.431 28.9815 7.913C29.1121 7.395 29.1775 6.75333 29.1775 5.988ZM38.0196 10.048V11H32.6436V10.048H34.7926V3.209C34.7926 3.00367 34.7996 2.796 34.8136 2.586L33.0286 4.119C32.9679 4.17033 32.9072 4.203 32.8466 4.217C32.7859 4.22633 32.7299 4.22633 32.6786 4.217C32.6272 4.20767 32.5782 4.189 32.5316 4.161C32.4896 4.133 32.4569 4.10267 32.4336 4.07L32.0416 3.531L35.0306 0.947999H36.0456V10.048H38.0196ZM43.0746 10.118C43.4013 10.118 43.693 10.0737 43.9496 9.985C44.211 9.89167 44.4303 9.76333 44.6076 9.6C44.7896 9.432 44.9273 9.23367 45.0206 9.005C45.1186 8.77167 45.1676 8.515 45.1676 8.235C45.1676 7.88967 45.1093 7.59567 44.9926 7.353C44.8806 7.10567 44.7266 6.905 44.5306 6.751C44.3393 6.597 44.1176 6.485 43.8656 6.415C43.6136 6.34033 43.35 6.303 43.0746 6.303C42.7993 6.303 42.5356 6.34033 42.2836 6.415C42.0316 6.485 41.8076 6.597 41.6116 6.751C41.4203 6.905 41.2663 7.10567 41.1496 7.353C41.0376 7.59567 40.9816 7.88967 40.9816 8.235C40.9816 8.515 41.0283 8.77167 41.1216 9.005C41.2196 9.23367 41.3573 9.432 41.5346 9.6C41.7166 9.76333 41.936 9.89167 42.1926 9.985C42.454 10.0737 42.748 10.118 43.0746 10.118ZM43.0746 1.823C42.776 1.823 42.5123 1.86733 42.2836 1.956C42.0596 2.04467 41.8706 2.166 41.7166 2.32C41.5673 2.474 41.453 2.65367 41.3736 2.859C41.299 3.06433 41.2616 3.28367 41.2616 3.517C41.2616 3.74567 41.2943 3.96733 41.3596 4.182C41.425 4.39667 41.53 4.588 41.6746 4.756C41.8193 4.91933 42.006 5.05233 42.2346 5.155C42.468 5.253 42.748 5.302 43.0746 5.302C43.4013 5.302 43.679 5.253 43.9076 5.155C44.141 5.05233 44.33 4.91933 44.4746 4.756C44.6193 4.588 44.7243 4.39667 44.7896 4.182C44.855 3.96733 44.8876 3.74567 44.8876 3.517C44.8876 3.28367 44.848 3.06433 44.7686 2.859C44.694 2.65367 44.5796 2.474 44.4256 2.32C44.2763 2.166 44.0873 2.04467 43.8586 1.956C43.6346 1.86733 43.3733 1.823 43.0746 1.823ZM44.5096 5.771C45.135 5.94833 45.6156 6.24467 45.9516 6.66C46.2876 7.07533 46.4556 7.60733 46.4556 8.256C46.4556 8.69467 46.3716 9.09133 46.2036 9.446C46.0403 9.796 45.8093 10.0947 45.5106 10.342C45.2166 10.5893 44.862 10.7807 44.4466 10.916C44.0313 11.0467 43.574 11.112 43.0746 11.112C42.5753 11.112 42.118 11.0467 41.7026 10.916C41.2873 10.7807 40.9303 10.5893 40.6316 10.342C40.333 10.0947 40.102 9.796 39.9386 9.446C39.7753 9.09133 39.6936 8.69467 39.6936 8.256C39.6936 7.60733 39.8616 7.07533 40.1976 6.66C40.5336 6.24467 41.0143 5.94833 41.6396 5.771C41.1123 5.575 40.7133 5.28333 40.4426 4.896C40.1766 4.504 40.0436 4.03733 40.0436 3.496C40.0436 3.12733 40.116 2.782 40.2606 2.46C40.4053 2.138 40.6106 1.858 40.8766 1.62C41.1426 1.382 41.46 1.19533 41.8286 1.06C42.202 0.924666 42.6173 0.856999 43.0746 0.856999C43.5273 0.856999 43.9403 0.924666 44.3136 1.06C44.687 1.19533 45.0066 1.382 45.2726 1.62C45.5386 1.858 45.744 2.138 45.8886 2.46C46.0333 2.782 46.1056 3.12733 46.1056 3.496C46.1056 4.03733 45.9703 4.504 45.6996 4.896C45.4336 5.28333 45.037 5.575 44.5096 5.771ZM64.8064 0.968999L61.6774 11H60.4594L57.9184 3.349C57.895 3.27433 57.8717 3.195 57.8484 3.111C57.8297 3.027 57.8087 2.93833 57.7854 2.845C57.762 2.93833 57.7387 3.027 57.7154 3.111C57.692 3.195 57.6687 3.27433 57.6454 3.349L55.0904 11H53.8724L50.7434 0.968999H51.8704C51.9917 0.968999 52.092 0.999333 52.1714 1.06C52.2554 1.12067 52.309 1.19767 52.3324 1.291L54.4044 8.263C54.437 8.389 54.4674 8.52433 54.4954 8.669C54.528 8.81367 54.5584 8.96767 54.5864 9.131C54.619 8.96767 54.6517 8.81367 54.6844 8.669C54.7217 8.51967 54.7614 8.38433 54.8034 8.263L57.1624 1.291C57.1904 1.21167 57.244 1.13933 57.3234 1.074C57.4074 1.004 57.5077 0.968999 57.6244 0.968999H58.0164C58.1377 0.968999 58.2357 0.999333 58.3104 1.06C58.385 1.12067 58.441 1.19767 58.4784 1.291L60.8304 8.263C60.8724 8.38433 60.9097 8.515 60.9424 8.655C60.9797 8.795 61.0147 8.942 61.0474 9.096C61.0707 8.942 61.0964 8.795 61.1244 8.655C61.1524 8.515 61.1827 8.38433 61.2154 8.263L63.2944 1.291C63.3177 1.207 63.369 1.13233 63.4484 1.067C63.5324 1.00167 63.6327 0.968999 63.7494 0.968999H64.8064ZM69.2606 6.17C69.6479 6.17 69.9886 6.11867 70.2826 6.016C70.5812 5.91333 70.8309 5.771 71.0316 5.589C71.2369 5.40233 71.3909 5.18067 71.4936 4.924C71.5962 4.66733 71.6476 4.385 71.6476 4.077C71.6476 3.43767 71.4492 2.93833 71.0526 2.579C70.6606 2.21967 70.0632 2.04 69.2606 2.04H67.6506V6.17H69.2606ZM69.2606 0.968999C69.8952 0.968999 70.4459 1.04367 70.9126 1.193C71.3839 1.33767 71.7736 1.54533 72.0816 1.816C72.3896 2.08667 72.6182 2.41333 72.7676 2.796C72.9216 3.17867 72.9986 3.60567 72.9986 4.077C72.9986 4.54367 72.9169 4.97067 72.7536 5.358C72.5902 5.74533 72.3499 6.079 72.0326 6.359C71.7199 6.639 71.3302 6.85833 70.8636 7.017C70.4016 7.171 69.8672 7.248 69.2606 7.248H67.6506V11H66.2996V0.968999H69.2606ZM80.868 6.17C81.2553 6.17 81.596 6.11867 81.89 6.016C82.1886 5.91333 82.4383 5.771 82.639 5.589C82.8443 5.40233 82.9983 5.18067 83.101 4.924C83.2036 4.66733 83.255 4.385 83.255 4.077C83.255 3.43767 83.0566 2.93833 82.66 2.579C82.268 2.21967 81.6706 2.04 80.868 2.04H79.258V6.17H80.868ZM80.868 0.968999C81.5026 0.968999 82.0533 1.04367 82.52 1.193C82.9913 1.33767 83.381 1.54533 83.689 1.816C83.997 2.08667 84.2256 2.41333 84.375 2.796C84.529 3.17867 84.606 3.60567 84.606 4.077C84.606 4.54367 84.5243 4.97067 84.361 5.358C84.1976 5.74533 83.9573 6.079 83.64 6.359C83.3273 6.639 82.9376 6.85833 82.471 7.017C82.009 7.171 81.4746 7.248 80.868 7.248H79.258V11H77.907V0.968999H80.868ZM91.7838 3.909V11H91.0418C90.8645 11 90.7525 10.9137 90.7058 10.741L90.6078 9.978C90.2998 10.3187 89.9545 10.594 89.5718 10.804C89.1892 11.0093 88.7505 11.112 88.2558 11.112C87.8685 11.112 87.5255 11.049 87.2268 10.923C86.9328 10.7923 86.6855 10.6103 86.4848 10.377C86.2842 10.1437 86.1325 9.86133 86.0298 9.53C85.9318 9.19867 85.8828 8.83233 85.8828 8.431V3.909H87.1288V8.431C87.1288 8.96767 87.2502 9.383 87.4928 9.677C87.7402 9.971 88.1158 10.118 88.6198 10.118C88.9885 10.118 89.3315 10.0317 89.6488 9.859C89.9708 9.68167 90.2672 9.439 90.5378 9.131V3.909H91.7838ZM97.8895 5.078C97.8335 5.18067 97.7471 5.232 97.6305 5.232C97.5605 5.232 97.4811 5.20633 97.3925 5.155C97.3038 5.10367 97.1941 5.04767 97.0635 4.987C96.9375 4.92167 96.7858 4.86333 96.6085 4.812C96.4311 4.756 96.2211 4.728 95.9785 4.728C95.7685 4.728 95.5795 4.756 95.4115 4.812C95.2435 4.86333 95.0988 4.93567 94.9775 5.029C94.8608 5.12233 94.7698 5.232 94.7045 5.358C94.6438 5.47933 94.6135 5.61233 94.6135 5.757C94.6135 5.939 94.6648 6.09067 94.7675 6.212C94.8748 6.33333 95.0148 6.43833 95.1875 6.527C95.3601 6.61567 95.5561 6.695 95.7755 6.765C95.9948 6.83033 96.2188 6.90267 96.4475 6.982C96.6808 7.05667 96.9071 7.14067 97.1265 7.234C97.3458 7.32733 97.5418 7.444 97.7145 7.584C97.8871 7.724 98.0248 7.89667 98.1275 8.102C98.2348 8.30267 98.2885 8.54533 98.2885 8.83C98.2885 9.15667 98.2301 9.46 98.1135 9.74C97.9968 10.0153 97.8241 10.2557 97.5955 10.461C97.3668 10.6617 97.0868 10.8203 96.7555 10.937C96.4241 11.0537 96.0415 11.112 95.6075 11.112C95.1128 11.112 94.6648 11.0327 94.2635 10.874C93.8621 10.7107 93.5215 10.503 93.2415 10.251L93.5355 9.775C93.5728 9.71433 93.6171 9.66767 93.6685 9.635C93.7198 9.60233 93.7851 9.586 93.8645 9.586C93.9485 9.586 94.0371 9.61867 94.1305 9.684C94.2238 9.74933 94.3358 9.82167 94.4665 9.901C94.6018 9.98033 94.7651 10.0527 94.9565 10.118C95.1478 10.1833 95.3858 10.216 95.6705 10.216C95.9131 10.216 96.1255 10.1857 96.3075 10.125C96.4895 10.0597 96.6411 9.97333 96.7625 9.866C96.8838 9.75867 96.9725 9.635 97.0285 9.495C97.0891 9.355 97.1195 9.20567 97.1195 9.047C97.1195 8.851 97.0658 8.69 96.9585 8.564C96.8558 8.43333 96.7181 8.32367 96.5455 8.235C96.3728 8.14167 96.1745 8.06233 95.9505 7.997C95.7311 7.927 95.5048 7.85467 95.2715 7.78C95.0428 7.70533 94.8165 7.62133 94.5925 7.528C94.3731 7.43 94.1771 7.30867 94.0045 7.164C93.8318 7.01933 93.6918 6.842 93.5845 6.632C93.4818 6.41733 93.4305 6.15833 93.4305 5.855C93.4305 5.58433 93.4865 5.32533 93.5985 5.078C93.7105 4.826 93.8738 4.60667 94.0885 4.42C94.3031 4.22867 94.5668 4.077 94.8795 3.965C95.1921 3.853 95.5491 3.797 95.9505 3.797C96.4171 3.797 96.8348 3.87167 97.2035 4.021C97.5768 4.16567 97.8988 4.36633 98.1695 4.623L97.8895 5.078ZM101.069 4.854C101.372 4.532 101.708 4.27533 102.077 4.084C102.446 3.89267 102.87 3.797 103.351 3.797C103.738 3.797 104.079 3.86233 104.373 3.993C104.672 4.119 104.919 4.301 105.115 4.539C105.316 4.77233 105.467 5.05467 105.57 5.386C105.673 5.71733 105.724 6.08367 105.724 6.485V11H104.471V6.485C104.471 5.94833 104.347 5.533 104.1 5.239C103.857 4.94033 103.486 4.791 102.987 4.791C102.618 4.791 102.273 4.87967 101.951 5.057C101.634 5.23433 101.34 5.47467 101.069 5.778V11H99.8161V0.689H101.069V4.854ZM112.369 6.681C112.369 6.39167 112.327 6.128 112.243 5.89C112.163 5.64733 112.044 5.43967 111.886 5.267C111.732 5.08967 111.543 4.95433 111.319 4.861C111.095 4.763 110.84 4.714 110.556 4.714C109.958 4.714 109.485 4.889 109.135 5.239C108.789 5.58433 108.575 6.065 108.491 6.681H112.369ZM113.377 10.006C113.223 10.1927 113.038 10.356 112.824 10.496C112.609 10.6313 112.378 10.7433 112.131 10.832C111.888 10.9207 111.636 10.986 111.375 11.028C111.113 11.0747 110.854 11.098 110.598 11.098C110.108 11.098 109.655 11.0163 109.24 10.853C108.829 10.685 108.472 10.4423 108.169 10.125C107.87 9.803 107.637 9.40633 107.469 8.935C107.301 8.46367 107.217 7.92233 107.217 7.311C107.217 6.81633 107.291 6.35433 107.441 5.925C107.595 5.49567 107.814 5.12467 108.099 4.812C108.383 4.49467 108.731 4.24733 109.142 4.07C109.552 3.888 110.014 3.797 110.528 3.797C110.952 3.797 111.344 3.86933 111.704 4.014C112.068 4.154 112.38 4.35933 112.642 4.63C112.908 4.896 113.115 5.22733 113.265 5.624C113.414 6.016 113.489 6.464 113.489 6.968C113.489 7.164 113.468 7.29467 113.426 7.36C113.384 7.42533 113.304 7.458 113.188 7.458H108.449C108.463 7.906 108.523 8.29567 108.631 8.627C108.743 8.95833 108.897 9.236 109.093 9.46C109.289 9.67933 109.522 9.845 109.793 9.957C110.063 10.0643 110.367 10.118 110.703 10.118C111.015 10.118 111.284 10.083 111.508 10.013C111.736 9.93833 111.932 9.859 112.096 9.775C112.259 9.691 112.394 9.614 112.502 9.544C112.614 9.46933 112.709 9.432 112.789 9.432C112.891 9.432 112.971 9.47167 113.027 9.551L113.377 10.006ZM116.202 5.33C116.426 4.84467 116.702 4.46667 117.028 4.196C117.355 3.92067 117.754 3.783 118.225 3.783C118.375 3.783 118.517 3.79933 118.652 3.832C118.792 3.86467 118.916 3.916 119.023 3.986L118.932 4.917C118.904 5.03367 118.834 5.092 118.722 5.092C118.657 5.092 118.561 5.078 118.435 5.05C118.309 5.022 118.167 5.008 118.008 5.008C117.784 5.008 117.584 5.04067 117.406 5.106C117.234 5.17133 117.077 5.26933 116.937 5.4C116.802 5.526 116.678 5.68467 116.566 5.876C116.459 6.06267 116.361 6.27733 116.272 6.52V11H115.019V3.909H115.733C115.869 3.909 115.962 3.93467 116.013 3.986C116.065 4.03733 116.1 4.126 116.118 4.252L116.202 5.33ZM125.052 11H123.694V0.968999H125.052V11ZM135.773 0.968999L131.685 11H130.467L126.379 0.968999H127.464C127.585 0.968999 127.683 0.999333 127.758 1.06C127.833 1.12067 127.889 1.19767 127.926 1.291L130.754 8.368C130.815 8.52667 130.873 8.69933 130.929 8.886C130.99 9.07267 131.043 9.26867 131.09 9.474C131.137 9.26867 131.186 9.07267 131.237 8.886C131.288 8.69933 131.344 8.52667 131.405 8.368L134.226 1.291C134.254 1.21167 134.308 1.13933 134.387 1.074C134.471 1.004 134.571 0.968999 134.688 0.968999H135.773ZM142.005 2.537C141.963 2.607 141.916 2.66067 141.865 2.698C141.818 2.73067 141.76 2.747 141.69 2.747C141.61 2.747 141.517 2.70733 141.41 2.628C141.302 2.54867 141.167 2.46233 141.004 2.369C140.845 2.271 140.651 2.18233 140.423 2.103C140.199 2.02367 139.926 1.984 139.604 1.984C139.3 1.984 139.032 2.026 138.799 2.11C138.57 2.18933 138.376 2.299 138.218 2.439C138.064 2.579 137.947 2.74467 137.868 2.936C137.788 3.12267 137.749 3.32567 137.749 3.545C137.749 3.825 137.816 4.05833 137.952 4.245C138.092 4.427 138.274 4.58333 138.498 4.714C138.726 4.84467 138.983 4.959 139.268 5.057C139.557 5.15033 139.851 5.24833 140.15 5.351C140.453 5.45367 140.747 5.57033 141.032 5.701C141.321 5.827 141.578 5.988 141.802 6.184C142.03 6.38 142.212 6.62033 142.348 6.905C142.488 7.18967 142.558 7.53967 142.558 7.955C142.558 8.39367 142.483 8.80667 142.334 9.194C142.184 9.57667 141.965 9.91033 141.676 10.195C141.391 10.4797 141.039 10.7037 140.619 10.867C140.203 11.0303 139.73 11.112 139.198 11.112C138.544 11.112 137.952 10.9953 137.42 10.762C136.888 10.524 136.433 10.2043 136.055 9.803L136.447 9.159C136.484 9.10767 136.528 9.06567 136.58 9.033C136.636 8.99567 136.696 8.977 136.762 8.977C136.822 8.977 136.89 9.00267 136.965 9.054C137.044 9.10067 137.133 9.16133 137.231 9.236C137.329 9.31067 137.441 9.39233 137.567 9.481C137.693 9.56967 137.835 9.65133 137.994 9.726C138.157 9.80067 138.341 9.86367 138.547 9.915C138.752 9.96167 138.983 9.985 139.24 9.985C139.562 9.985 139.849 9.94067 140.101 9.852C140.353 9.76333 140.565 9.63967 140.738 9.481C140.915 9.31767 141.05 9.124 141.144 8.9C141.237 8.676 141.284 8.42633 141.284 8.151C141.284 7.84767 141.214 7.60033 141.074 7.409C140.938 7.213 140.759 7.04967 140.535 6.919C140.311 6.78833 140.054 6.67867 139.765 6.59C139.475 6.49667 139.181 6.40333 138.883 6.31C138.584 6.212 138.29 6.1 138.001 5.974C137.711 5.848 137.455 5.68467 137.231 5.484C137.007 5.28333 136.825 5.03367 136.685 4.735C136.549 4.43167 136.482 4.05833 136.482 3.615C136.482 3.26033 136.549 2.91733 136.685 2.586C136.825 2.25467 137.025 1.96067 137.287 1.704C137.553 1.44733 137.877 1.242 138.26 1.088C138.647 0.933999 139.09 0.856999 139.59 0.856999C140.15 0.856999 140.658 0.945666 141.116 1.123C141.578 1.30033 141.984 1.557 142.334 1.893L142.005 2.537ZM151.135 6.849C151.135 6.70433 151.161 6.56667 151.212 6.436C151.268 6.30533 151.343 6.19333 151.436 6.1C151.534 6.00667 151.644 5.932 151.765 5.876C151.891 5.82 152.024 5.792 152.164 5.792C152.309 5.792 152.447 5.82 152.577 5.876C152.708 5.932 152.82 6.00667 152.913 6.1C153.007 6.19333 153.081 6.30533 153.137 6.436C153.193 6.56667 153.221 6.70433 153.221 6.849C153.221 6.989 153.193 7.122 153.137 7.248C153.081 7.374 153.007 7.486 152.913 7.584C152.82 7.67733 152.708 7.752 152.577 7.808C152.447 7.85933 152.309 7.885 152.164 7.885C152.024 7.885 151.891 7.85933 151.765 7.808C151.644 7.752 151.534 7.67733 151.436 7.584C151.343 7.486 151.268 7.374 151.212 7.248C151.161 7.122 151.135 6.989 151.135 6.849Z" fill="#636B6F"/>
<path d="M168.799 2.11H165.551V11H164.2V2.11H160.945V0.968999H168.799V2.11ZM173.031 6.681C173.031 6.39167 172.989 6.128 172.905 5.89C172.826 5.64733 172.707 5.43967 172.548 5.267C172.394 5.08967 172.205 4.95433 171.981 4.861C171.757 4.763 171.503 4.714 171.218 4.714C170.621 4.714 170.147 4.889 169.797 5.239C169.452 5.58433 169.237 6.065 169.153 6.681H173.031ZM174.039 10.006C173.885 10.1927 173.701 10.356 173.486 10.496C173.271 10.6313 173.04 10.7433 172.793 10.832C172.55 10.9207 172.298 10.986 172.037 11.028C171.776 11.0747 171.517 11.098 171.26 11.098C170.77 11.098 170.317 11.0163 169.902 10.853C169.491 10.685 169.134 10.4423 168.831 10.125C168.532 9.803 168.299 9.40633 168.131 8.935C167.963 8.46367 167.879 7.92233 167.879 7.311C167.879 6.81633 167.954 6.35433 168.103 5.925C168.257 5.49567 168.476 5.12467 168.761 4.812C169.046 4.49467 169.393 4.24733 169.804 4.07C170.215 3.888 170.677 3.797 171.19 3.797C171.615 3.797 172.007 3.86933 172.366 4.014C172.73 4.154 173.043 4.35933 173.304 4.63C173.57 4.896 173.778 5.22733 173.927 5.624C174.076 6.016 174.151 6.464 174.151 6.968C174.151 7.164 174.13 7.29467 174.088 7.36C174.046 7.42533 173.967 7.458 173.85 7.458H169.111C169.125 7.906 169.186 8.29567 169.293 8.627C169.405 8.95833 169.559 9.236 169.755 9.46C169.951 9.67933 170.184 9.845 170.455 9.957C170.726 10.0643 171.029 10.118 171.365 10.118C171.678 10.118 171.946 10.083 172.17 10.013C172.399 9.93833 172.595 9.859 172.758 9.775C172.921 9.691 173.057 9.614 173.164 9.544C173.276 9.46933 173.372 9.432 173.451 9.432C173.554 9.432 173.633 9.47167 173.689 9.551L174.039 10.006ZM176.864 5.33C177.088 4.84467 177.364 4.46667 177.69 4.196C178.017 3.92067 178.416 3.783 178.887 3.783C179.037 3.783 179.179 3.79933 179.314 3.832C179.454 3.86467 179.578 3.916 179.685 3.986L179.594 4.917C179.566 5.03367 179.496 5.092 179.384 5.092C179.319 5.092 179.223 5.078 179.097 5.05C178.971 5.022 178.829 5.008 178.67 5.008C178.446 5.008 178.246 5.04067 178.068 5.106C177.896 5.17133 177.739 5.26933 177.599 5.4C177.464 5.526 177.34 5.68467 177.228 5.876C177.121 6.06267 177.023 6.27733 176.934 6.52V11H175.681V3.909H176.395C176.531 3.909 176.624 3.93467 176.675 3.986C176.727 4.03733 176.762 4.126 176.78 4.252L176.864 5.33ZM180.781 11V3.909H181.53C181.707 3.909 181.817 3.99533 181.859 4.168L181.95 4.896C182.211 4.574 182.505 4.31033 182.832 4.105C183.159 3.89967 183.537 3.797 183.966 3.797C184.442 3.797 184.827 3.93 185.121 4.196C185.42 4.462 185.634 4.82133 185.765 5.274C185.868 5.01733 185.998 4.79567 186.157 4.609C186.32 4.42233 186.502 4.26833 186.703 4.147C186.904 4.02567 187.116 3.937 187.34 3.881C187.569 3.825 187.8 3.797 188.033 3.797C188.406 3.797 188.738 3.85767 189.027 3.979C189.321 4.09567 189.568 4.26833 189.769 4.497C189.974 4.72567 190.131 5.008 190.238 5.344C190.345 5.67533 190.399 6.05567 190.399 6.485V11H189.146V6.485C189.146 5.92967 189.025 5.50967 188.782 5.225C188.539 4.93567 188.189 4.791 187.732 4.791C187.527 4.791 187.331 4.82833 187.144 4.903C186.962 4.973 186.801 5.078 186.661 5.218C186.521 5.358 186.409 5.53533 186.325 5.75C186.246 5.96 186.206 6.205 186.206 6.485V11H184.953V6.485C184.953 5.91567 184.839 5.491 184.61 5.211C184.381 4.931 184.048 4.791 183.609 4.791C183.301 4.791 183.016 4.875 182.755 5.043C182.494 5.20633 182.253 5.43033 182.034 5.715V11H180.781ZM196.423 5.078C196.367 5.18067 196.28 5.232 196.164 5.232C196.094 5.232 196.014 5.20633 195.926 5.155C195.837 5.10367 195.727 5.04767 195.597 4.987C195.471 4.92167 195.319 4.86333 195.142 4.812C194.964 4.756 194.754 4.728 194.512 4.728C194.302 4.728 194.113 4.756 193.945 4.812C193.777 4.86333 193.632 4.93567 193.511 5.029C193.394 5.12233 193.303 5.232 193.238 5.358C193.177 5.47933 193.147 5.61233 193.147 5.757C193.147 5.939 193.198 6.09067 193.301 6.212C193.408 6.33333 193.548 6.43833 193.721 6.527C193.893 6.61567 194.089 6.695 194.309 6.765C194.528 6.83033 194.752 6.90267 194.981 6.982C195.214 7.05667 195.44 7.14067 195.66 7.234C195.879 7.32733 196.075 7.444 196.248 7.584C196.42 7.724 196.558 7.89667 196.661 8.102C196.768 8.30267 196.822 8.54533 196.822 8.83C196.822 9.15667 196.763 9.46 196.647 9.74C196.53 10.0153 196.357 10.2557 196.129 10.461C195.9 10.6617 195.62 10.8203 195.289 10.937C194.957 11.0537 194.575 11.112 194.141 11.112C193.646 11.112 193.198 11.0327 192.797 10.874C192.395 10.7107 192.055 10.503 191.775 10.251L192.069 9.775C192.106 9.71433 192.15 9.66767 192.202 9.635C192.253 9.60233 192.318 9.586 192.398 9.586C192.482 9.586 192.57 9.61867 192.664 9.684C192.757 9.74933 192.869 9.82167 193 9.901C193.135 9.98033 193.298 10.0527 193.49 10.118C193.681 10.1833 193.919 10.216 194.204 10.216C194.446 10.216 194.659 10.1857 194.841 10.125C195.023 10.0597 195.174 9.97333 195.296 9.866C195.417 9.75867 195.506 9.635 195.562 9.495C195.622 9.355 195.653 9.20567 195.653 9.047C195.653 8.851 195.599 8.69 195.492 8.564C195.389 8.43333 195.251 8.32367 195.079 8.235C194.906 8.14167 194.708 8.06233 194.484 7.997C194.264 7.927 194.038 7.85467 193.805 7.78C193.576 7.70533 193.35 7.62133 193.126 7.528C192.906 7.43 192.71 7.30867 192.538 7.164C192.365 7.01933 192.225 6.842 192.118 6.632C192.015 6.41733 191.964 6.15833 191.964 5.855C191.964 5.58433 192.02 5.32533 192.132 5.078C192.244 4.826 192.407 4.60667 192.622 4.42C192.836 4.22867 193.1 4.077 193.413 3.965C193.725 3.853 194.082 3.797 194.484 3.797C194.95 3.797 195.368 3.87167 195.737 4.021C196.11 4.16567 196.432 4.36633 196.703 4.623L196.423 5.078ZM204.92 3.797C205.438 3.797 205.905 3.88333 206.32 4.056C206.736 4.22867 207.09 4.47367 207.384 4.791C207.678 5.10833 207.902 5.49333 208.056 5.946C208.215 6.394 208.294 6.89567 208.294 7.451C208.294 8.011 208.215 8.515 208.056 8.963C207.902 9.411 207.678 9.79367 207.384 10.111C207.09 10.4283 206.736 10.6733 206.32 10.846C205.905 11.014 205.438 11.098 204.92 11.098C204.398 11.098 203.926 11.014 203.506 10.846C203.091 10.6733 202.736 10.4283 202.442 10.111C202.148 9.79367 201.922 9.411 201.763 8.963C201.609 8.515 201.532 8.011 201.532 7.451C201.532 6.89567 201.609 6.394 201.763 5.946C201.922 5.49333 202.148 5.10833 202.442 4.791C202.736 4.47367 203.091 4.22867 203.506 4.056C203.926 3.88333 204.398 3.797 204.92 3.797ZM204.92 10.125C205.62 10.125 206.143 9.89167 206.488 9.425C206.834 8.95367 207.006 8.298 207.006 7.458C207.006 6.61333 206.834 5.95533 206.488 5.484C206.143 5.01267 205.62 4.777 204.92 4.777C204.566 4.777 204.255 4.83767 203.989 4.959C203.728 5.08033 203.509 5.25533 203.331 5.484C203.159 5.71267 203.028 5.995 202.939 6.331C202.855 6.66233 202.813 7.038 202.813 7.458C202.813 8.298 202.986 8.95367 203.331 9.425C203.681 9.89167 204.211 10.125 204.92 10.125ZM210.186 11V4.973L209.402 4.882C209.304 4.85867 209.223 4.82367 209.157 4.777C209.097 4.72567 209.066 4.65333 209.066 4.56V4.049H210.186V3.363C210.186 2.957 210.242 2.59767 210.354 2.285C210.471 1.96767 210.634 1.70167 210.844 1.487C211.059 1.26767 211.316 1.102 211.614 0.99C211.913 0.877999 212.249 0.821999 212.622 0.821999C212.94 0.821999 213.231 0.868666 213.497 0.962L213.469 1.585C213.46 1.697 213.397 1.75767 213.28 1.767C213.168 1.77633 213.017 1.781 212.825 1.781C212.611 1.781 212.415 1.809 212.237 1.865C212.065 1.921 211.915 2.012 211.789 2.138C211.663 2.264 211.565 2.42967 211.495 2.635C211.43 2.84033 211.397 3.09467 211.397 3.398V4.049H213.441V4.952H211.439V11H210.186ZM223.38 2.537C223.338 2.607 223.291 2.66067 223.24 2.698C223.193 2.73067 223.135 2.747 223.065 2.747C222.985 2.747 222.892 2.70733 222.785 2.628C222.677 2.54867 222.542 2.46233 222.379 2.369C222.22 2.271 222.026 2.18233 221.798 2.103C221.574 2.02367 221.301 1.984 220.979 1.984C220.675 1.984 220.407 2.026 220.174 2.11C219.945 2.18933 219.751 2.299 219.593 2.439C219.439 2.579 219.322 2.74467 219.243 2.936C219.163 3.12267 219.124 3.32567 219.124 3.545C219.124 3.825 219.191 4.05833 219.327 4.245C219.467 4.427 219.649 4.58333 219.873 4.714C220.101 4.84467 220.358 4.959 220.643 5.057C220.932 5.15033 221.226 5.24833 221.525 5.351C221.828 5.45367 222.122 5.57033 222.407 5.701C222.696 5.827 222.953 5.988 223.177 6.184C223.405 6.38 223.587 6.62033 223.723 6.905C223.863 7.18967 223.933 7.53967 223.933 7.955C223.933 8.39367 223.858 8.80667 223.709 9.194C223.559 9.57667 223.34 9.91033 223.051 10.195C222.766 10.4797 222.414 10.7037 221.994 10.867C221.578 11.0303 221.105 11.112 220.573 11.112C219.919 11.112 219.327 10.9953 218.795 10.762C218.263 10.524 217.808 10.2043 217.43 9.803L217.822 9.159C217.859 9.10767 217.903 9.06567 217.955 9.033C218.011 8.99567 218.071 8.977 218.137 8.977C218.197 8.977 218.265 9.00267 218.34 9.054C218.419 9.10067 218.508 9.16133 218.606 9.236C218.704 9.31067 218.816 9.39233 218.942 9.481C219.068 9.56967 219.21 9.65133 219.369 9.726C219.532 9.80067 219.716 9.86367 219.922 9.915C220.127 9.96167 220.358 9.985 220.615 9.985C220.937 9.985 221.224 9.94067 221.476 9.852C221.728 9.76333 221.94 9.63967 222.113 9.481C222.29 9.31767 222.425 9.124 222.519 8.9C222.612 8.676 222.659 8.42633 222.659 8.151C222.659 7.84767 222.589 7.60033 222.449 7.409C222.313 7.213 222.134 7.04967 221.91 6.919C221.686 6.78833 221.429 6.67867 221.14 6.59C220.85 6.49667 220.556 6.40333 220.258 6.31C219.959 6.212 219.665 6.1 219.376 5.974C219.086 5.848 218.83 5.68467 218.606 5.484C218.382 5.28333 218.2 5.03367 218.06 4.735C217.924 4.43167 217.857 4.05833 217.857 3.615C217.857 3.26033 217.924 2.91733 218.06 2.586C218.2 2.25467 218.4 1.96067 218.662 1.704C218.928 1.44733 219.252 1.242 219.635 1.088C220.022 0.933999 220.465 0.856999 220.965 0.856999C221.525 0.856999 222.033 0.945666 222.491 1.123C222.953 1.30033 223.359 1.557 223.709 1.893L223.38 2.537ZM230.261 6.681C230.261 6.39167 230.219 6.128 230.135 5.89C230.056 5.64733 229.937 5.43967 229.778 5.267C229.624 5.08967 229.435 4.95433 229.211 4.861C228.987 4.763 228.733 4.714 228.448 4.714C227.851 4.714 227.377 4.889 227.027 5.239C226.682 5.58433 226.467 6.065 226.383 6.681H230.261ZM231.269 10.006C231.115 10.1927 230.931 10.356 230.716 10.496C230.502 10.6313 230.271 10.7433 230.023 10.832C229.781 10.9207 229.529 10.986 229.267 11.028C229.006 11.0747 228.747 11.098 228.49 11.098C228 11.098 227.548 11.0163 227.132 10.853C226.722 10.685 226.365 10.4423 226.061 10.125C225.763 9.803 225.529 9.40633 225.361 8.935C225.193 8.46367 225.109 7.92233 225.109 7.311C225.109 6.81633 225.184 6.35433 225.333 5.925C225.487 5.49567 225.707 5.12467 225.991 4.812C226.276 4.49467 226.624 4.24733 227.034 4.07C227.445 3.888 227.907 3.797 228.42 3.797C228.845 3.797 229.237 3.86933 229.596 4.014C229.96 4.154 230.273 4.35933 230.534 4.63C230.8 4.896 231.008 5.22733 231.157 5.624C231.307 6.016 231.381 6.464 231.381 6.968C231.381 7.164 231.36 7.29467 231.318 7.36C231.276 7.42533 231.197 7.458 231.08 7.458H226.341C226.355 7.906 226.416 8.29567 226.523 8.627C226.635 8.95833 226.789 9.236 226.985 9.46C227.181 9.67933 227.415 9.845 227.685 9.957C227.956 10.0643 228.259 10.118 228.595 10.118C228.908 10.118 229.176 10.083 229.4 10.013C229.629 9.93833 229.825 9.859 229.988 9.775C230.152 9.691 230.287 9.614 230.394 9.544C230.506 9.46933 230.602 9.432 230.681 9.432C230.784 9.432 230.863 9.47167 230.919 9.551L231.269 10.006ZM234.095 5.33C234.319 4.84467 234.594 4.46667 234.921 4.196C235.247 3.92067 235.646 3.783 236.118 3.783C236.267 3.783 236.409 3.79933 236.545 3.832C236.685 3.86467 236.808 3.916 236.916 3.986L236.825 4.917C236.797 5.03367 236.727 5.092 236.615 5.092C236.549 5.092 236.454 5.078 236.328 5.05C236.202 5.022 236.059 5.008 235.901 5.008C235.677 5.008 235.476 5.04067 235.299 5.106C235.126 5.17133 234.97 5.26933 234.83 5.4C234.694 5.526 234.571 5.68467 234.459 5.876C234.351 6.06267 234.253 6.27733 234.165 6.52V11H232.912V3.909H233.626C233.761 3.909 233.854 3.93467 233.906 3.986C233.957 4.03733 233.992 4.126 234.011 4.252L234.095 5.33ZM244.087 3.909L241.196 11H240.076L237.185 3.909H238.2C238.303 3.909 238.387 3.93467 238.452 3.986C238.518 4.03733 238.562 4.098 238.585 4.168L240.384 8.732C240.44 8.90467 240.489 9.07267 240.531 9.236C240.573 9.39933 240.613 9.56267 240.65 9.726C240.688 9.56267 240.727 9.39933 240.769 9.236C240.811 9.07267 240.863 8.90467 240.923 8.732L242.743 4.168C242.771 4.09333 242.818 4.03267 242.883 3.986C242.949 3.93467 243.026 3.909 243.114 3.909H244.087ZM246.546 3.909V11H245.3V3.909H246.546ZM246.812 1.683C246.812 1.80433 246.786 1.91867 246.735 2.026C246.688 2.12867 246.623 2.222 246.539 2.306C246.46 2.38533 246.364 2.44833 246.252 2.495C246.145 2.54167 246.03 2.565 245.909 2.565C245.788 2.565 245.673 2.54167 245.566 2.495C245.463 2.44833 245.372 2.38533 245.293 2.306C245.214 2.222 245.151 2.12867 245.104 2.026C245.057 1.91867 245.034 1.80433 245.034 1.683C245.034 1.56167 245.057 1.44733 245.104 1.34C245.151 1.228 245.214 1.13233 245.293 1.053C245.372 0.969 245.463 0.903666 245.566 0.856999C245.673 0.810333 245.788 0.786999 245.909 0.786999C246.03 0.786999 246.145 0.810333 246.252 0.856999C246.364 0.903666 246.46 0.969 246.539 1.053C246.623 1.13233 246.688 1.228 246.735 1.34C246.786 1.44733 246.812 1.56167 246.812 1.683ZM253.528 5.169C253.491 5.22033 253.454 5.26 253.416 5.288C253.379 5.316 253.328 5.33 253.262 5.33C253.192 5.33 253.115 5.302 253.031 5.246C252.947 5.18533 252.842 5.12 252.716 5.05C252.595 4.98 252.443 4.917 252.261 4.861C252.084 4.80033 251.865 4.77 251.603 4.77C251.253 4.77 250.945 4.833 250.679 4.959C250.413 5.08033 250.189 5.25767 250.007 5.491C249.83 5.72433 249.695 6.00667 249.601 6.338C249.513 6.66933 249.468 7.04033 249.468 7.451C249.468 7.88033 249.517 8.263 249.615 8.599C249.713 8.93033 249.851 9.21033 250.028 9.439C250.21 9.663 250.427 9.83567 250.679 9.957C250.936 10.0737 251.223 10.132 251.54 10.132C251.844 10.132 252.093 10.097 252.289 10.027C252.485 9.95233 252.646 9.87067 252.772 9.782C252.903 9.69333 253.01 9.614 253.094 9.544C253.183 9.46933 253.269 9.432 253.353 9.432C253.456 9.432 253.535 9.47167 253.591 9.551L253.941 10.006C253.787 10.1973 253.612 10.3607 253.416 10.496C253.22 10.6313 253.008 10.7457 252.779 10.839C252.555 10.9277 252.32 10.993 252.072 11.035C251.825 11.077 251.573 11.098 251.316 11.098C250.873 11.098 250.46 11.0163 250.077 10.853C249.699 10.6897 249.37 10.454 249.09 10.146C248.81 9.83333 248.591 9.45067 248.432 8.998C248.274 8.54533 248.194 8.02967 248.194 7.451C248.194 6.92367 248.267 6.436 248.411 5.988C248.561 5.54 248.775 5.155 249.055 4.833C249.34 4.50633 249.688 4.252 250.098 4.07C250.514 3.888 250.99 3.797 251.526 3.797C252.026 3.797 252.464 3.87867 252.842 4.042C253.225 4.20067 253.563 4.427 253.857 4.721L253.528 5.169ZM259.902 6.681C259.902 6.39167 259.86 6.128 259.776 5.89C259.697 5.64733 259.578 5.43967 259.419 5.267C259.265 5.08967 259.076 4.95433 258.852 4.861C258.628 4.763 258.374 4.714 258.089 4.714C257.492 4.714 257.018 4.889 256.668 5.239C256.323 5.58433 256.108 6.065 256.024 6.681H259.902ZM260.91 10.006C260.756 10.1927 260.572 10.356 260.357 10.496C260.142 10.6313 259.911 10.7433 259.664 10.832C259.421 10.9207 259.169 10.986 258.908 11.028C258.647 11.0747 258.388 11.098 258.131 11.098C257.641 11.098 257.188 11.0163 256.773 10.853C256.362 10.685 256.005 10.4423 255.702 10.125C255.403 9.803 255.17 9.40633 255.002 8.935C254.834 8.46367 254.75 7.92233 254.75 7.311C254.75 6.81633 254.825 6.35433 254.974 5.925C255.128 5.49567 255.347 5.12467 255.632 4.812C255.917 4.49467 256.264 4.24733 256.675 4.07C257.086 3.888 257.548 3.797 258.061 3.797C258.486 3.797 258.878 3.86933 259.237 4.014C259.601 4.154 259.914 4.35933 260.175 4.63C260.441 4.896 260.649 5.22733 260.798 5.624C260.947 6.016 261.022 6.464 261.022 6.968C261.022 7.164 261.001 7.29467 260.959 7.36C260.917 7.42533 260.838 7.458 260.721 7.458H255.982C255.996 7.906 256.057 8.29567 256.164 8.627C256.276 8.95833 256.43 9.236 256.626 9.46C256.822 9.67933 257.055 9.845 257.326 9.957C257.597 10.0643 257.9 10.118 258.236 10.118C258.549 10.118 258.817 10.083 259.041 10.013C259.27 9.93833 259.466 9.859 259.629 9.775C259.792 9.691 259.928 9.614 260.035 9.544C260.147 9.46933 260.243 9.432 260.322 9.432C260.425 9.432 260.504 9.47167 260.56 9.551L260.91 10.006Z" fill="#31708F"/>
</svg>
